<?xml version="1.0" encoding="UTF-8"?>
<svg width="150px" height="23px" viewBox="0 0 150 23" version="1.1" xmlns="http://www.w3.org/2000/svg" xmlns:xlink="http://www.w3.org/1999/xlink">
    <!-- Generator: Sketch 49.3 (51167) - http://www.bohemiancoding.com/sketch -->
    <title>cloud4wi</title>
    <desc>Created with Sketch.</desc>
    <defs></defs>
    <g id="Page-1" stroke="none" stroke-width="1" fill="none" fill-rule="evenodd">
        <g id="cloud4wi" fill-rule="nonzero">
            <g id="C4W_2016_RGB">
                <g id="Group-26">
                    <path d="M14.0648378,20.1149396 C9.10467002,20.1149396 5.0835962,16.0476465 5.0835962,11.0304653 C5.0835962,6.01312006 9.10467002,1.94582699 14.0648378,1.94582699 C19.0250056,1.94582699 23.0460794,6.01312006 23.0460794,11.0304653 C23.0460794,16.0476465 19.0250056,20.1149396 14.0648378,20.1149396 M14.0648378,0.0345667412 C8.06096197,0.0345667412 3.19389262,4.95757942 3.19389262,11.0304653 C3.19389262,17.1033512 8.06096197,22.0263639 14.0648378,22.0263639 C20.0687136,22.0263639 24.935783,17.1033512 24.935783,11.0304653 C24.935783,4.95757942 20.0687136,0.0345667412 14.0648378,0.0345667412" id="Fill-18" fill="#717171"></path>
                    <path d="M29.11467,7.35039523 C29.11467,7.74019389 28.799368,8.05912006 28.4139989,8.05912006 L10.5112025,8.05912006 C10.1258333,8.05912006 9.81053132,7.74019389 9.81053132,7.35039523 L9.81053132,6.78686055 C9.81053132,6.39706189 10.1258333,6.07813572 10.5112025,6.07813572 L28.4139989,6.07813572 C28.799368,6.07813572 29.11467,6.39706189 29.11467,6.78686055 L29.11467,7.35039523 Z" id="Fill-20" fill="#5C80BC"></path>
                    <path d="M19.6025727,11.3121999 C19.6025727,11.7019985 19.2872707,12.0209247 18.9019016,12.0209247 L0.719161074,12.0209247 C0.333791946,12.0209247 0.0184899329,11.7019985 0.0184899329,11.3121999 L0.0184899329,10.7486652 C0.0184899329,10.3588665 0.333791946,10.0399403 0.719161074,10.0399403 L18.9019016,10.0399403 C19.2872707,10.0399403 19.6025727,10.3588665 19.6025727,10.7486652 L19.6025727,11.3121999 Z" id="Fill-22" fill="#3C938C"></path>
                    <path d="M27.4361409,15.2740045 C27.4361409,15.6638031 27.1208389,15.9827293 26.7354698,15.9827293 L8.55272931,15.9827293 C8.16736018,15.9827293 7.85205817,15.6638031 7.85205817,15.2740045 L7.85205817,14.7104698 C7.85205817,14.3206711 8.16736018,14.001745 8.55272931,14.001745 L26.7354698,14.001745 C27.1208389,14.001745 27.4361409,14.3206711 27.4361409,14.7104698 L27.4361409,15.2740045 Z" id="Fill-24" fill="#5C2751"></path>
                </g>
            </g>
            <g id="Group-17" transform="translate(33.221477, 2.013423)" fill="#717171">
                <path d="M8.99447866,0.151761745 C11.802486,0.151761745 13.6906205,1.2200803 14.6106546,1.87582694 C15.1190606,2.26429171 15.143255,2.74983221 14.8042102,3.28407239 L14.3685489,3.9883569 C14.0296654,4.54670422 13.5698096,4.59524209 12.988659,4.23120805 C12.2383086,3.74550575 10.8827745,3.0169523 9.11545089,3.0169523 C5.36337628,3.0169523 3.35410824,5.76095997 3.35410824,8.94180849 C3.35410824,12.1713567 5.43612092,15.109354 9.13964533,15.109354 C11.07633,15.109354 12.5529977,14.1866491 13.3518983,13.603871 C13.8843374,13.2155681 14.3685489,13.2155681 14.7558213,13.7739154 L15.2398715,14.4295002 C15.6031108,14.9150407 15.5789163,15.425012 15.0947048,15.8379075 C14.1264431,16.6149988 12.0687862,17.9747064 9.01867311,17.9747064 C3.62040843,17.9747064 0.134634024,14.0653044 0.134634024,8.99034636 C0.134634024,3.9883569 3.78993085,0.151761745 8.99447866,0.151761745" id="Fill-1"></path>
                <path d="M16.9574997,1.46296381 C16.9574997,0.807540748 17.2963833,0.443183126 17.9501172,0.443183126 L19.0635456,0.443183126 C19.7172795,0.443183126 20.0560017,0.807540748 20.0560017,1.46296381 L20.0560017,14.9882035 L26.4710783,14.9882035 C27.1488453,14.9882035 27.4877289,15.3279686 27.4877289,15.9833917 L27.4877289,16.6634072 C27.4877289,17.3434228 27.1488453,17.6833497 26.4710783,17.6833497 L17.9501172,17.6833497 C17.2963833,17.6833497 16.9574997,17.3434228 16.9574997,16.6634072 L16.9574997,1.46296381 Z" id="Fill-3"></path>
                <path d="M35.1363673,15.1094349 C38.4285862,15.1094349 40.8009322,12.4385576 40.8009322,8.94172759 C40.8009322,5.59083473 38.4285862,3.0170332 35.1363673,3.0170332 C31.8443098,3.0170332 29.4718024,5.59083473 29.4718024,8.94172759 C29.4718024,12.4385576 31.8443098,15.1094349 35.1363673,15.1094349 M35.1363673,0.151842641 C40.3410764,0.151842641 44.0204064,4.01254494 44.0204064,8.94172759 C44.0204064,14.0168474 40.3410764,17.9746255 35.1363673,17.9746255 C29.9318195,17.9746255 26.2524895,14.0168474 26.2524895,8.94172759 C26.2524895,4.01254494 29.9318195,0.151842641 35.1363673,0.151842641" id="Fill-5"></path>
                <path d="M45.5443339,1.46296381 C45.5443339,0.807540748 45.8832174,0.443183126 46.5369513,0.443183126 L47.6261852,0.443183126 C48.3039523,0.443183126 48.6428358,0.807540748 48.6428358,1.46296381 L48.6428358,11.4671045 C48.6428358,13.7982167 50.1436979,15.1093864 52.4432993,15.1093864 C54.743062,15.1093864 56.2681186,13.7982167 56.2681186,11.4671045 L56.2681186,1.46296381 C56.2681186,0.807540748 56.6071634,0.443183126 57.260736,0.443183126 L58.3741644,0.443183126 C59.027737,0.443183126 59.3666206,0.807540748 59.3666206,1.46296381 L59.3666206,11.4913734 C59.3666206,15.3522375 56.6071634,17.9747387 52.4676551,17.9747387 C48.3039523,17.9747387 45.5443339,15.3522375 45.5443339,11.4913734 L45.5443339,1.46296381 Z" id="Fill-7"></path>
                <path d="M67.595958,14.9881388 C71.0817324,14.9881388 73.3089117,12.9241467 73.3089117,9.03901366 C73.3089117,5.2025803 71.0333435,3.13858821 67.595958,3.13858821 L65.0055393,3.13858821 L65.0055393,14.9881388 L67.595958,14.9881388 Z M61.9070373,1.46289909 C61.9070373,0.807476031 62.2460822,0.443118408 62.8998161,0.443118408 L67.7654804,0.443118408 C73.066806,0.443118408 76.5285472,3.60002157 76.5285472,9.03901366 C76.5285472,14.4781675 73.066806,17.683285 67.7654804,17.683285 L62.8998161,17.683285 C62.2460822,17.683285 61.9070373,17.3435199 61.9070373,16.6635043 L61.9070373,1.46289909 Z" id="Fill-9"></path>
                <path d="M84.8302421,10.6416533 L84.8302421,5.29957514 C84.8302421,4.44983881 84.9513757,3.50270314 84.9513757,3.50270314 L84.9029868,3.50270314 C84.9029868,3.50270314 84.515553,4.42556987 84.0558586,5.08099293 L80.0857114,10.5931154 L80.0857114,10.6416533 L84.8302421,10.6416533 Z M76.7936538,12.244212 L76.7936538,12.0013609 C76.7936538,11.5156586 76.8904316,11.1516245 77.1567318,10.762998 L83.7895584,1.09878416 C84.0797304,0.637512584 84.443131,0.443199305 84.9997645,0.443199305 L86.8880604,0.443199305 C87.5658274,0.443199305 87.9048723,0.807556927 87.9048723,1.46297999 L87.9048723,10.6416533 L89.1150784,10.6416533 C89.7688123,10.6416533 90.131729,10.9815802 90.131729,11.6373268 L90.131729,12.244212 C90.131729,12.8999587 89.8412344,13.2397238 89.3087953,13.2397238 L87.9048723,13.2397238 L87.9048723,16.6634234 C87.9048723,17.343439 87.5658274,17.6833659 86.8880604,17.6833659 L85.8230209,17.6833659 C85.169287,17.6833659 84.8302421,17.343439 84.8302421,16.6634234 L84.8302421,13.2397238 L77.7859487,13.2397238 C77.1322148,13.2397238 76.7936538,12.8999587 76.7936538,12.244212 Z" id="Fill-11"></path>
                <path d="M90.6148598,1.56026606 C90.4453374,0.880250479 90.7601878,0.44308605 91.4865051,0.44308605 L92.6967112,0.44308605 C93.2775392,0.44308605 93.6407785,0.734798658 93.7862678,1.34168384 L96.2794247,12.3654434 C96.497336,13.336848 96.5457249,14.1865844 96.5457249,14.1865844 L96.5939525,14.1865844 C96.5939525,14.1865844 96.6910529,13.361117 96.9573531,12.3654434 L99.8137493,1.31741491 C99.9832717,0.734798658 100.346188,0.44308605 100.951695,0.44308605 L101.774306,0.44308605 C102.379651,0.44308605 102.742729,0.734798658 102.863862,1.31741491 L105.696225,12.3654434 C105.962364,13.361117 106.059142,14.1865844 106.059142,14.1865844 L106.107531,14.1865844 C106.107531,14.1865844 106.180276,13.336848 106.398187,12.3654434 L109.036511,1.34168384 C109.157644,0.734798658 109.520722,0.44308605 110.150262,0.44308605 L111.287884,0.44308605 C112.01404,0.44308605 112.352924,0.880250479 112.183724,1.56026606 L108.23761,16.8335163 C108.06841,17.4162943 107.705171,17.6832526 107.099987,17.6832526 L105.381536,17.6832526 C104.776191,17.6832526 104.413113,17.3920254 104.267785,16.8092474 L101.822695,7.48512224 C101.532523,6.36794223 101.363,5.22681687 101.363,5.22681687 L101.290094,5.22681687 C101.290094,5.22681687 101.120895,6.36794223 100.854594,7.48512224 L98.3856318,16.8092474 C98.2403039,17.3920254 97.8770646,17.6832526 97.2718809,17.6832526 L95.528913,17.6832526 C94.9238906,17.6832526 94.56049,17.3920254 94.4154846,16.8092474 L90.6148598,1.56026606 Z" id="Fill-13"></path>
                <path d="M113.610116,1.46296381 C113.610116,0.807540748 113.948999,0.443183126 114.602733,0.443183126 L115.716162,0.443183126 C116.369895,0.443183126 116.708618,0.807540748 116.708618,1.46296381 L116.708618,16.6634072 C116.708618,17.3434228 116.369895,17.6833497 115.716162,17.6833497 L114.602733,17.6833497 C113.948999,17.6833497 113.610116,17.3434228 113.610116,16.6634072 L113.610116,1.46296381 Z" id="Fill-15"></path>
            </g>
        </g>
    </g>
</svg>