<svg xmlns="http://www.w3.org/2000/svg" height="800" width="1200" viewBox="-20.25 -10.68365 175.5 64.1019"><path fill="#686366" d="M8.435 39.5845l-.1562.3711c-.1465-.1025-.381-.1513-.6983-.1513-.3027 0-.542.122-.7226.3613-.1807.2441-.2686.5566-.2686.9424 0 .3613.0928.6543.2783.8838.1856.2246.4248.3417.7178.3417.3174 0 .5615-.1073.7324-.3222l.2588.3369c-.2734.2539-.6152.3809-1.0449.3809-.4443 0-.7959-.1514-1.0498-.4541-.2539-.3028-.3809-.7032-.3809-1.1963 0-.4786.1319-.879.4102-1.1914.2686-.3223.625-.4786 1.0547-.4786.371 0 .6592.0586.8691.1758m6.05 1.46c0 .3711.0781.6738.2295.9229.1514.249.371.371.6494.371.3174 0 .5615-.1122.7276-.3417.166-.2247.249-.542.249-.9522 0-.8252-.3272-1.2402-.9766-1.2402-.288 0-.5078.1123-.6543.337-.1513.2196-.2246.5224-.2246.9032m-.4883 0c0-.459.1221-.8496.3711-1.167.2442-.3125.5762-.4687.9961-.4687.4736 0 .835.1465 1.089.4346.2538.288.3759.6884.3759 1.2012 0 .5273-.127.9424-.376 1.2402-.2539.2978-.6152.4492-1.0889.4492-.4248 0-.7617-.1563-1.0059-.4736-.2441-.3174-.3613-.7178-.3613-1.2158m10.9883 1.6299l-.4053-2.0654-.7422 2.1094h-.1171l-.7666-2.1094-.3956 2.0654h-.4394l.6348-3.2129h.21l.8154 2.3438.747-2.3438h.21l.6933 3.213m5.8857-2.8101v1.1865c.2002.0146.3027.0195.3125.0195.581 0 .8642-.21.8642-.6396 0-.3907-.3027-.586-.9228-.586l-.2539.0195m0 1.582v1.2354h-.4639V39.469c.3516-.0146.5664-.0195.6348-.0195.9912 0 1.4893.3125 1.4893.9375 0 .7227-.4395 1.0791-1.3135 1.0791-.0537 0-.166-.005-.3467-.0195m8.33-1.1821l-.5273 1.416h1.0107zm.8496 2.417l-.2344-.6787h-1.2695l-.2539.6787h-.5175l1.3867-3.2568h.1221l1.2842 3.2568m7.6027.043l-1.7578-2.3486v2.3047h-.4443v-3.2129h.1855l1.714 2.2168v-2.2168h.4443v3.2568m5.8283-.05h.4688v-3.2129h-.4688zm6.76-2.81v.8936h1.1035v.371H61.345v1.1573h1.543v.3955h-2.0068v-3.213h2.0068v.3956m5.447 2.67l.166-.4004c.088.0586.1953.1074.3272.1465.1318.039.2441.0586.3466.0586.1807 0 .3272-.0439.4395-.1416.1074-.0928.166-.21.166-.3564l-.0976-.2979c-.0586-.0976-.2148-.1953-.459-.3027l-.2734-.1221c-.2344-.1025-.3955-.2247-.4883-.3663-.0928-.1367-.1367-.3076-.1367-.5029 0-.2441.0879-.4394.2685-.6006.1807-.1562.4102-.2343.6934-.2343.376 0 .6396.0586.7861.1709l-.1367.3808c-.0635-.039-.1562-.078-.2832-.1221-.127-.039-.2441-.0586-.3564-.0586-.1563 0-.2784.044-.3711.127-.0927.0879-.1367.1953-.1367.3271l.0489.2246.1367.171c.0586.044.1758.1073.3564.1903l.2783.122c.2295.1025.3955.2295.4883.3711.0976.1465.1416.3272.1416.5518 0 .2393-.1025.4443-.3076.6103-.205.171-.4785.254-.8252.254-.3027 0-.5566-.0684-.7715-.2002m13.9799.1401v-3.2129h.4639v2.8174h1.5478v.3955m5.5283 0h.4639v-3.2129h-.4639zm8.86 0l-.4101-2.0654-.7422 2.1094h-.1123l-.7715-2.1094-.3955 2.0654h-.4394l.6396-3.2129h.21l.8105 2.3438.7471-2.3438h.2148l.6885 3.213m5.5005-.0001h.4688v-3.2129h-.4688zm7.54-2.81v2.8174h-.4639v-2.8174h-1.0889v-.3955h2.6856v.3955m5.9072 0v.8936h1.1035v.371h-1.1035v1.1573h1.5479v.3955h-2.0117v-3.213h2.0117v.3956m6.0521 0v2.3975c.1025.0146.2344.0244.3857.0244.3272 0 .581-.1171.7666-.3467.1856-.2295.2832-.5517.2832-.957 0-.7617-.3613-1.1377-1.0889-1.1377-.044 0-.1611.005-.3466.0195m.2197 2.8174h-.6836V39.469c.4346-.0146.7178-.0195.8398-.0195.4786 0 .8496.1367 1.128.4053.2783.2734.4199.6396.4199 1.0938 0 1.1524-.5664 1.7334-1.7041 1.7334"/><path fill="none" stroke-width="1.25" stroke-linecap="round" stroke="#686366" d="M.625 34.6045h133.75" stroke-linejoin="round"/><path d="M81.395 16.7045c-2.7441.376-5.4932 1.1084-6.8652 3.3545v-6.0058h6.0693c.2246-2.4658 1.7676-3.4326 4.1553-3.4326 2.1973 0 4.0527.3906 4.0527 3.086 0 2.5634-3.5742 2.4267-7.4121 2.998m7.4121 4.331c0 1.3622-.1709 5.2441-5.0781 5.2441-2.0264 0-3.8379-.5664-3.8379-2.9102 0-2.2949 1.7725-2.9639 3.7109-3.3545 1.9385-.3516 4.1406-.3955 5.2051-1.3232zm-30.977 4.7167c-3.706 0-5.332-3.4912-5.332-7.2852 0-3.833 1.626-7.3193 5.332-7.3193 3.7061 0 5.3369 3.4863 5.3369 7.3193 0 3.794-1.6308 7.2852-5.3369 7.2852m-21.509 0c-4.2383 0-5.5225-3.667-5.5225-7.2852 0-3.6572 1.2842-7.3193 5.5225-7.3193 4.2774 0 5.5566 3.6621 5.5566 7.3193 0 3.6182-1.2793 7.2852-5.5566 7.2852m90.669-18.711h-6.4356l-4.1846 15.444h-.0976l-3.877-15.444h-6.0889l-3.7891 15.488h-.0928l-4.1894-15.488h-6.6113l.1904.6006c-1.9434-.9522-4.4678-1.2158-6.7627-1.2158-4.6826 0-9.4873 1.4844-10.522 6.2549V0h-6.2598v12.217c-1.7188-3.9746-5.0879-5.791-8.2812-5.791-2.8223 0-5.6494 1.0596-7.1924 3.3984h-.083V.0002h-6.2598v11.729c-1.9629-3.3398-5.5225-5.3027-10.132-5.3027-7.1484 0-11.777 4.7608-11.777 12.041 0 1.7725.2735 3.3936.8008 4.8291h-6.3623c-5.1416 0-5.0635-2.4951-5.0635-4.4775V.0011H7.6156s.0635 18.599 0 22.231c0 7.2363 5.4932 7.456 10.308 7.456h10.737v-1.6894c1.9678 1.5869 4.585 2.4756 7.6611 2.4756 4.6094 0 8.169-1.9678 10.132-5.2881v4.668h5.9473V26.944h.0976c1.3623 2.5098 4.1308 3.5303 7.4902 3.5303 3.1934 0 6.5625-1.8115 8.2812-5.8057v5.1856h6.2598v-2.627c1.2988 2.1973 3.8721 3.2471 6.8652 3.2471 2.7832 0 5.6934-.747 7.6758-2.8272.044.752.2246 1.5039.4444 2.207h6.3428c-.5665-.9277-.7862-2.998-.7862-5.0781v-6.8604l3.7842 11.938h6.4844l3.8818-15.308h.083l4.0625 15.308h6.4356" fill="#686366"/></svg>