<svg width="1200" height="800" xmlns="http://www.w3.org/2000/svg" viewBox="-90 -64.6755 780 388.053"><path d="M83.2 74.5c-21.7.7-41.1 6.1-57.8 22.5V76.8H0v177.1h25.4v-97.6c.1-33.4 23.1-56.4 57.6-56.4 1.1 0 2.4 0 3.6.1l2.4.1V74.6l-2-.1c-1.2-.1-2.5-.1-3.6-.1h-.2zm321.6-43.3L427.7.3v52H420v-28l-15.1 20.2-15.1-20.2v28h-7.7V.3zm-177.3 7.6c-.1-2.7-1.4-7.9-8.4-13.6l-6.1-5.3c-2.6-2-3.9-4.3-3.9-6.9 0-2.9 1.9-5.1 5-5.2 0 0 3.9-.5 6 2.7l.1.1 6.2-4.2h-.1c-1-1.7-5.9-6.2-12.3-5.9-3.7.2-6.9 1.6-9.2 3.9-2.4 2.4-3.5 5.7-3.3 9.4.2 4.4 2.7 8.4 7.9 12.7l5.7 5.1c3.2 2.6 4.5 4.8 4.8 7.4.1 1.9-.5 3.7-1.7 5.1-1.1 1.2-2.3 1.8-4 1.8h-.3c-4.9 0-6.8-3.4-7.9-5.4l-.3-.6-6.6 3.2c.6 1.7 4.2 10.1 14.7 10.1h.2c3.9-.2 7.4-1.7 9.9-4.3 2.5-2.7 3.8-6.3 3.6-10.1zM75.3 0C60.6 0 48.5 12 48.5 26.8c0 14.7 12 26.8 26.8 26.8 14.7 0 26.8-12 26.8-26.8C102 12 90 0 75.3 0zm0 45.8c-10.5 0-19-8.5-19-19s8.5-19 19-19 19 8.5 19 19-8.6 19-19 19zM345.2 0c-14.7 0-26.8 12-26.8 26.8 0 14.7 12 26.8 26.8 26.8 14.7 0 26.8-12 26.8-26.8C371.9 12 359.9 0 345.2 0zm0 45.8c-10.5 0-19-8.5-19-19s8.5-19 19-19 19 8.5 19 19-8.6 19-19 19zM38.3 53.5V1.3h-7.7v32.5L0 .3v52h7.8V20.4l.2.3zM266.7 1.3h-32.6v7.1h12.2v43.9h8V8.5h12.2V1.3zm34 31.9l.1-.1c.9-.5 1.7-.9 2.4-1.5 4.2-3.1 6.7-8.3 6.7-13.7 0-9.2-6.8-16.5-15.1-16.5h-17.9v51h7.8V34.5h7.6v.1l11.8 17.8h9.3zm-6.7-6.6h-9.3V8.9h9.3c4.4 0 8 4 8 8.8 0 4.9-3.6 8.9-8 8.9zM170.9 1.3h-12.6v51h12.6c12.3 0 22.1-11.4 22.1-25.5 0-14-9.9-25.5-22.1-25.5zm-.2 43.6H166V8.7h4.6c8.4 0 14.6 8.2 14.6 18.1.2 10-6.2 18.1-14.5 18.1zm-34.8-11.7l.1-.1c.9-.5 1.7-.9 2.4-1.5 4.2-3.1 6.7-8.3 6.7-13.7 0-9.2-6.8-16.5-15.1-16.5h-17.9v51h7.8V34.5h7.6v.1l11.8 17.8h9.3zm-6.7-6.6h-9.3V8.9h9.3c4.4 0 8 4 8 8.8.2 4.9-3.5 8.9-8 8.9zm439 227.5H600l-75.2-108 68.4-70.8h-35.1l-81.5 84.3V0h-25.4v254.1h25.4v-57.4l5.3-6.2 24.7-25.5zm-153.9-46.2l-1.4 1.5c-14.5 15.3-32.5 23.3-51.9 23.3-38.8 0-69.2-29.9-69.2-68.1 0-37.5 29.7-68.1 66.1-68.1 18.9 0 36.7 7.5 51.2 21.5l1.5 1.5 16.3-18.6-1.2-1.2c-18.3-18.3-41.1-27.6-67.7-27.6-51.5 0-91.8 40.7-91.8 92.6 0 26.5 10.3 50.5 29.2 67.6 17.7 16.1 41.2 25 66.1 25 27 0 52.4-11.2 70-30.7l1.4-1.5zm-170.9-81.1c-.6-15.1-8.9-29.1-22.4-39.4-13.1-10.2-30.5-15.7-48.8-15.7-39 0-70.7 25.6-70.7 57.2H126c0-17.8 21.1-32.7 46.1-32.7 12.9 0 24.9 3.7 33.7 10.6 7.4 5.7 11.6 12.8 12.2 20.3.7 13.9-6.8 15.2-9.3 15.6-58.8 9.9-72.9 13.4-72.9 13.4-19.8 5.4-26.2 13.3-31.7 20.3-5.7 7.1-8.5 17.2-8.5 29.7 0 9.1 1.6 17 4.8 23.7 3.2 6.7 7.6 12.2 13.1 16.5 5.5 4.3 12 7.5 19.4 9.5 7.2 1.9 15.2 2.8 23.6 2.9 18.3.1 48.7-2.8 61.7-20.8v16.4h25.5V128.1c-.2-.6-.3-.9-.3-1.3zM217.9 186c0 30.8-21 38.8-35 43.5-7 2.4-50.3 11.7-60.4-14-6.9-17.6 5-31.5 17.9-34.9 7.9-2.2 77.5-14.6 77.5-14.6z" fill="#454547"/></svg>