<svg xmlns="http://www.w3.org/2000/svg" height="800" width="1200" viewBox="-7.497555 -5.37765 64.97881 32.2659"><path d="M-279.6432 244.0323c.2645 0 .582-.2117.7143-.4498l2.0109-4.3656h.1587l2.0109 4.3656c.1058.2381.4233.4498.7143.4498h.926c.2647 0 .397-.2117.2911-.4498l-2.6723-5.7944c-.1058-.238-.4233-.4498-.7144-.4498h-1.27c-.2645 0-.582.2117-.7143.4498l-2.6988 5.7944c-.1058.2381.0265.4498.291.4498z" clip-path="url(#SVGID_2_)" fill="#64c5b6" transform="translate(321.3252 -234.084)"/><path d="M-295.4124 236.227h.9525c.344 0 .582-.238.582-.6084v-.926c0-.3705-.238-.6086-.6085-.6086h-.9525c-.3175 0-.5556.238-.5556.6085v.9525c0 .344.2381.582.5821.582m-16.7746-1.4022h-.8996a.4743.4743 0 00-.4762.4762v8.1228c0 .979-.2381 2.1166-1.4023 2.1166h-1.1377v-6.3235a.4743.4743 0 00-.4763-.4763h-.8995a.4743.4743 0 00-.4763.4763v6.3235h-2.3283c-.2646 0-.5821.2117-.7144.4498l-.291.6086c-.1059.238.0265.4497.291.4497h6.0325c2.4077 0 3.2544-1.8785 3.2544-3.6247v-8.1227a.4743.4743 0 00-.4763-.4763m40.7988 11.8004l-.291-.6085c-.106-.2381-.4234-.4498-.7144-.4498h-9.6309v-1.614a.4743.4743 0 00-.4762-.4762h-.8996a.4743.4743 0 00-.4763.4762v1.614h-1.9843c-1.1642 0-1.4023-1.1642-1.4023-2.1167v-8.1227a.4743.4743 0 00-.4763-.4762h-.8996a.4743.4743 0 00-.4762.4762v8.1227c0 1.7463.8467 3.6248 3.2544 3.6248h14.1816c.2646 0 .3969-.2117.291-.4498m-23.5478-9.2869c-2.7517 0-3.7307 1.8786-3.7307 3.6513v2.4342c0 .8202.1852 1.5345.5821 2.1166h-4.0746v-4.5508c0-1.7727-.979-3.6513-3.7306-3.6513-2.7517 0-3.7306 1.8786-3.7306 3.6513v2.4342c0 1.0318.3175 1.905.926 2.5664.6615.7144 1.614 1.0848 2.8046 1.0848h1.852v.635c0 1.5875-.4762 2.1696-1.852 2.1696h-.7144a.4743.4743 0 00-.4762.4762v.5557c0 .2645.2116.4762.4762.4762h.688c1.1906 0 2.1695-.3704 2.831-1.0848.6085-.635.926-1.5346.926-2.5664v-.688h7.2496c1.1906 0 2.1431-.3704 2.8046-1.0847.6085-.635.926-1.5346.926-2.5665v-2.4342c-.0265-1.7198-1.0054-3.6248-3.757-3.6248m-10.9803 8.2286c-1.3758 0-1.852-.5821-1.852-2.1696v-2.3548c0-1.5875.5027-2.1696 1.852-2.196 1.3494 0 1.8521.6085 1.8521 2.196v4.5244h-1.852m12.8322-2.1696c0 1.5875-.4762 2.1696-1.852 2.1696-1.3759 0-1.8521-.5821-1.8521-2.1696v-2.3548c0-1.5875.5027-2.1696 1.852-2.196 1.3494 0 1.8521.6085 1.8521 2.196zm-5.5033 8.6519c0-.3175.2646-.5821.7144-.5821.3704 0 .635.2117.8466.3175.1323.0794.291.1058.3705-.0794l.1323-.2117c.0794-.1323.0529-.2646-.0794-.3704-.2117-.1323-.6615-.4233-1.2436-.4233-.8996 0-1.5875.582-1.5875 1.4023 0 1.4552 2.2225 1.27 2.2225 2.143 0 .3176-.2646.5822-.7144.5822-.4762 0-.8202-.291-.9525-.3969-.1587-.0794-.291-.0794-.3968.0529l-.1588.2117c-.1323.1852-.0794.291.0265.3704.2381.1852.7938.5291 1.4552.5291 1.0054 0 1.5875-.6879 1.5875-1.4287 0-1.4817-2.2225-1.2435-2.2225-2.1167m19.3146 2.6988v-3.7042a.2371.2371 0 00-.2381-.2381h-.3704a.2371.2371 0 00-.2382.2381v4.2069c0 .1323.1059.2381.2382.2381h2.4341a.2371.2371 0 00.2382-.2381v-.2646a.2371.2371 0 00-.2382-.2381zm3.9423-.7144c.1323 0 .291-.1058.344-.2117l.979-2.0902h.0793l.979 2.0902c.0529.1059.2116.2117.344.2117h.4497c.1323 0 .1852-.1058.1323-.2117l-1.323-2.8045c-.0528-.1059-.2116-.2117-.3439-.2117h-.6085c-.1323 0-.291.1058-.344.2117l-1.2964 2.8045c-.053.1059 0 .2117.1323.2117zm-1.27 1.2435c-.0529.1059 0 .2117.1323.2117h4.9742c.1323 0 .1852-.1058.1323-.2117l-.1323-.291c-.053-.1323-.2117-.2117-.344-.2117h-4.2862c-.1323 0-.291.1059-.344.2117zm-17.78-1.2435c.1323 0 .291-.1058.344-.2117l.979-2.0902h.0793l.979 2.0902c.0529.1059.2116.2117.344.2117h.4497c.1323 0 .1852-.1058.1323-.2117l-1.323-2.8045c-.0528-.1059-.2116-.2117-.3439-.2117h-.6085c-.1323 0-.291.1058-.344.2117l-1.2964 2.8045c-.053.1059 0 .2117.1323.2117zm-1.27 1.2435c-.0529.1059 0 .2117.1323.2117h4.9742c.1323 0 .1852-.1058.1323-.2117l-.1323-.291c-.053-.1323-.2117-.2117-.344-.2117h-4.2862c-.1323 0-.291.1059-.344.2117zm9.3663-4.4714h-.4234c-.1323 0-.2646.1058-.3175.2117l-1.2435 3.3866h-.0794l-1.2436-3.3866c-.0529-.1323-.1852-.2117-.3175-.2117h-.4233c-.1323 0-.2117.1058-.1588.2117l1.561 4.2333c.053.1323.1853.2117.3176.2117h.582c.1324 0 .2647-.1059.3176-.2117l1.561-4.2333c.053-.1059 0-.2117-.1323-.2117m2.9104-.1323c-1.3758 0-1.8785.9525-1.8785 1.8256v1.27c0 .5027.1587.9525.4498 1.27.3175.344.8202.5292 1.4023.5292.6085 0 1.0848-.1852 1.4023-.5292.291-.3175.4498-.7673.4498-1.27v-1.27c.0529-.8731-.4498-1.7991-1.8257-1.8256m1.032 3.0956c0 .8202-.2647 1.1113-1.032 1.1113-.7673 0-1.0318-.291-1.0318-1.1113v-1.2435c0-.8202.291-1.1113 1.0318-1.1113.7409 0 1.032.3175 1.032 1.1113z" clip-path="url(#SVGID_2_)" fill="#5e6770" transform="translate(321.3252 -234.084)"/></svg>